<svg version="1.1" id="Layer_1" xmlns="http://www.w3.org/2000/svg" xmlns:xlink="http://www.w3.org/1999/xlink" x="0px" y="0px"
	 width="100%" viewBox="0 0 1024 1024" enable-background="new 0 0 1024 1024" xml:space="preserve">
<path fill="#FFFFFF" opacity="1.000000" stroke="none"
	d="
M680.000000,1025.000000
	C453.333344,1025.000000 227.166672,1025.000000 1.000000,1025.000000
	C1.000000,683.666687 1.000000,342.333344 1.000000,1.000000
	C342.333344,1.000000 683.666687,1.000000 1025.000000,1.000000
	C1025.000000,342.333344 1025.000000,683.666687 1025.000000,1025.000000
	C910.166687,1025.000000 795.333313,1025.000000 680.000000,1025.000000
M828.969238,573.004150
	C828.969238,477.421539 828.969238,381.838898 828.969238,286.270325
	C617.366760,286.270325 406.322540,286.270325 195.267731,286.270325
	C195.267731,437.278412 195.267731,587.994202 195.267731,738.738647
	C406.595154,738.738647 617.639648,738.738647 828.965088,738.738647
	C828.965088,688.682434 828.965088,638.889099 828.999207,588.151184
	C828.991577,583.411804 828.984009,578.672485 828.969238,573.004150
z"/>
<path fill="#333333" opacity="1.000000" stroke="none"
	d="
M828.965088,589.095825
	C828.965088,638.889099 828.965088,688.682434 828.965088,738.738647
	C617.639648,738.738647 406.595154,738.738647 195.267731,738.738647
	C195.267731,587.994202 195.267731,437.278412 195.267731,286.270325
	C406.322540,286.270325 617.366760,286.270325 828.969238,286.270325
	C828.969238,381.838898 828.969238,477.421539 828.584839,573.415405
	C824.974121,553.680908 814.286743,538.740723 796.294739,529.326111
	C789.251831,525.640808 781.811401,522.493286 774.239746,520.081421
	C749.743469,512.278259 724.326721,510.189270 698.828857,508.875641
	C691.553711,508.500824 684.273987,508.216522 676.599792,507.872955
	C676.812439,505.140808 676.848145,502.822876 677.193481,500.552032
	C679.247009,487.048584 680.932678,473.470215 683.549561,460.074768
	C694.482422,404.111389 711.482666,350.024414 734.540283,297.856171
	C737.184753,291.873016 735.578491,288.101685 729.039185,287.925110
	C723.948547,287.787659 718.474915,289.173523 713.732361,291.196960
	C699.922424,297.089020 688.402405,306.540375 677.534851,316.678925
	C649.195374,343.117188 626.459167,374.144104 604.946960,406.142303
	C602.499756,409.782318 600.196960,413.519440 597.867798,417.148315
	C607.745178,420.551483 617.051758,423.652161 626.268921,426.999176
	C628.977356,427.982635 630.219421,426.941559 631.471191,424.830597
	C643.663452,404.269836 658.020874,385.308990 673.942810,367.507599
	C675.345215,365.939636 676.630920,364.267212 677.970825,362.643250
	C678.406311,362.885529 678.841736,363.127808 679.277222,363.370056
	C664.517151,410.605469 649.280945,457.728790 645.362366,507.497742
	C617.682617,508.116730 590.673035,508.720734 562.669800,509.346985
	C571.195740,497.262268 579.159851,485.973816 587.565918,474.058929
	C578.088562,471.501251 569.543762,469.388489 561.134705,466.829681
	C557.829224,465.823883 555.947327,466.461487 554.095703,469.308533
	C545.559937,482.433533 536.786194,495.404205 528.302185,508.562012
	C526.806580,510.881500 525.399414,512.056763 522.542236,512.303223
	C509.595978,513.419861 496.660583,514.701294 483.747711,516.157837
	C454.560425,519.450195 425.642792,524.183044 397.850006,534.087402
	C379.069122,540.780273 361.758698,550.047852 349.502533,566.384338
	C334.420807,586.487061 333.034027,608.399597 344.337799,630.380737
	C355.228851,651.559204 374.565491,658.298828 397.194153,657.160889
	C417.357178,656.146851 434.843292,647.623169 451.077881,636.424316
	C482.074432,615.042236 506.137634,586.786804 528.653381,557.067261
	C528.989380,556.623718 528.934204,555.883850 529.225098,554.510315
	C514.391785,556.369019 500.041290,558.122375 485.714722,560.053223
	C484.643311,560.197571 483.435516,561.426208 482.808960,562.463562
	C472.081177,580.225037 456.733490,593.560242 440.572540,605.963257
	C429.187500,614.700867 417.098633,622.585938 402.661407,625.423889
	C391.938263,627.531738 381.928162,626.338257 374.955658,616.505432
	C368.909454,607.978821 368.561523,595.313232 375.791351,586.040405
	C380.780914,579.640930 387.287018,573.879517 394.220978,569.642273
	C415.159668,556.846863 438.686829,550.919312 462.609161,547.042053
	C520.770691,537.615417 579.420837,533.499939 638.283447,532.097595
	C639.569275,532.066956 640.860718,532.273254 642.506470,532.395569
	C642.403870,534.350647 642.342285,535.985840 642.228760,537.617371
	C639.798401,572.557617 641.425842,607.272217 649.104187,641.497803
	C654.674500,666.327148 662.748352,690.257080 677.875977,711.224487
	C696.383484,736.876465 723.888916,744.600952 752.846802,732.035706
	C776.623840,721.718384 793.671692,704.265320 805.484070,681.488831
	C807.827881,676.969543 809.469482,672.086060 811.434937,667.370483
	C810.902100,667.115540 810.369263,666.860596 809.836426,666.605591
	C809.095276,667.909851 808.356750,669.215637 807.612488,670.518188
	C798.961487,685.657654 787.961670,698.676086 772.909973,707.787598
	C752.348877,720.234131 733.361816,718.383484 715.710938,702.092529
	C704.291199,691.552734 697.434631,677.899780 692.145386,663.645264
	C676.782410,622.242004 672.691956,579.122925 673.733765,535.316711
	C673.755737,534.390625 674.100403,533.472168 674.320007,532.429382
	C675.582520,532.343445 676.566650,532.162476 677.534180,532.227295
	C697.805359,533.586060 718.137268,534.382996 738.325989,536.526428
	C756.918457,538.500427 775.143066,542.700867 791.876892,551.658081
	C809.330627,561.000671 821.913696,574.164062 825.259399,594.523804
	C825.395508,595.351807 825.973633,596.107178 826.353943,596.913818
	C827.273926,594.159363 828.119507,591.627625 828.965088,589.095825
M267.673126,453.326050
	C268.184662,453.087585 268.696167,452.849152 269.998566,452.550995
	C288.663269,447.565887 307.328003,442.580780 326.535889,437.690948
	C327.023529,437.459503 327.511139,437.228088 328.822449,437.105682
	C337.878906,435.584106 346.935333,434.062561 356.609100,432.684570
	C357.403442,432.449554 358.197784,432.214569 359.856812,432.102783
	C364.234894,431.486908 368.613007,430.871033 373.487549,430.474792
	C373.992096,430.317474 374.496613,430.160126 375.895630,430.140656
	C378.261627,429.816010 380.627625,429.491394 383.485901,429.379883
	C383.987305,429.244598 384.488739,429.109283 385.897614,429.135132
	C388.929565,428.810120 391.961548,428.485107 395.570862,428.396118
	C396.373474,428.245667 397.176056,428.095184 398.900696,428.110168
	C403.264740,427.847748 407.628815,427.585327 412.892548,427.596863
	C423.596191,427.467560 434.299805,427.338226 445.842926,427.548187
	C448.560486,427.586029 451.278046,427.623901 454.724792,427.903900
	C455.484009,427.848541 456.243195,427.793182 457.835510,427.974762
	C459.561310,427.970947 461.287140,427.967163 463.728058,428.259583
	C466.154205,428.354797 468.580322,428.450043 471.883942,428.802979
	C479.676514,429.537292 487.495178,430.064423 495.257294,431.040863
	C533.909058,435.903046 571.727966,444.322845 607.852295,459.149048
	C618.510071,463.523224 628.472229,469.592377 638.702881,474.858826
	C638.627563,474.565765 638.545837,473.752777 638.216370,473.057159
	C637.220642,470.955109 636.308411,468.781525 635.045776,466.842896
	C625.007629,451.430450 610.537109,441.779938 593.098511,437.365997
	C569.071716,431.284424 544.862244,425.750061 520.499390,421.229767
	C503.529510,418.081207 486.170685,417.028809 468.445831,414.715393
	C467.628235,414.733948 466.810608,414.752472 465.138519,414.422241
	C461.753998,414.295593 458.369476,414.168945 454.328644,413.738312
	C452.883667,413.724487 451.438721,413.710663 449.122833,413.356903
	C444.741852,413.256744 440.360870,413.156586 435.247681,412.750366
	C431.830170,412.752563 428.412689,412.754730 424.113312,412.435425
	C415.424377,412.582916 406.735474,412.730408 397.449646,412.633606
	C395.969788,412.764404 394.489929,412.895203 392.089813,412.840607
	C383.728607,413.502502 375.367401,414.164368 366.517303,414.606842
	C366.012085,414.739319 365.506866,414.871796 364.118683,414.863159
	C352.082611,416.460327 340.046570,418.057465 327.503418,419.472565
	C327.005554,419.657135 326.507690,419.841675 325.170074,419.924957
	C313.781250,422.375824 302.392456,424.826691 290.436493,427.157715
	C289.934418,427.382172 289.432312,427.606598 288.148193,427.809021
	C276.099762,432.284027 264.051331,436.759033 251.371231,441.254669
	C250.497513,441.805359 249.623810,442.356018 248.053650,442.980469
	C233.558823,449.650543 220.470978,458.442047 210.142029,470.621033
	C204.981659,476.705719 201.280197,484.027649 196.490250,491.115509
	C196.476639,491.636169 196.463013,492.156799 196.449387,492.677460
	C196.664276,492.555023 196.879166,492.432556 197.784378,492.209198
	C203.083313,487.968658 208.149963,483.390839 213.724945,479.551056
	C230.211899,468.195740 248.464157,460.320404 267.673126,453.326050
z"/>
<path fill="#F8F9F8" opacity="1.000000" stroke="none"
	d="
M828.982178,588.623535
	C828.119507,591.627625 827.273926,594.159363 826.353943,596.913818
	C825.973633,596.107178 825.395508,595.351807 825.259399,594.523804
	C821.913696,574.164062 809.330627,561.000671 791.876892,551.658081
	C775.143066,542.700867 756.918457,538.500427 738.325989,536.526428
	C718.137268,534.382996 697.805359,533.586060 677.534180,532.227295
	C676.566650,532.162476 675.582520,532.343445 674.320007,532.429382
	C674.100403,533.472168 673.755737,534.390625 673.733765,535.316711
	C672.691956,579.122925 676.782410,622.242004 692.145386,663.645264
	C697.434631,677.899780 704.291199,691.552734 715.710938,702.092529
	C733.361816,718.383484 752.348877,720.234131 772.909973,707.787598
	C787.961670,698.676086 798.961487,685.657654 807.612488,670.518188
	C808.356750,669.215637 809.095276,667.909851 809.836426,666.605591
	C810.369263,666.860596 810.902100,667.115540 811.434937,667.370483
	C809.469482,672.086060 807.827881,676.969543 805.484070,681.488831
	C793.671692,704.265320 776.623840,721.718384 752.846802,732.035706
	C723.888916,744.600952 696.383484,736.876465 677.875977,711.224487
	C662.748352,690.257080 654.674500,666.327148 649.104187,641.497803
	C641.425842,607.272217 639.798401,572.557617 642.228760,537.617371
	C642.342285,535.985840 642.403870,534.350647 642.506470,532.395569
	C640.860718,532.273254 639.569275,532.066956 638.283447,532.097595
	C579.420837,533.499939 520.770691,537.615417 462.609161,547.042053
	C438.686829,550.919312 415.159668,556.846863 394.220978,569.642273
	C387.287018,573.879517 380.780914,579.640930 375.791351,586.040405
	C368.561523,595.313232 368.909454,607.978821 374.955658,616.505432
	C381.928162,626.338257 391.938263,627.531738 402.661407,625.423889
	C417.098633,622.585938 429.187500,614.700867 440.572540,605.963257
	C456.733490,593.560242 472.081177,580.225037 482.808960,562.463562
	C483.435516,561.426208 484.643311,560.197571 485.714722,560.053223
	C500.041290,558.122375 514.391785,556.369019 529.225098,554.510315
	C528.934204,555.883850 528.989380,556.623718 528.653381,557.067261
	C506.137634,586.786804 482.074432,615.042236 451.077881,636.424316
	C434.843292,647.623169 417.357178,656.146851 397.194153,657.160889
	C374.565491,658.298828 355.228851,651.559204 344.337799,630.380737
	C333.034027,608.399597 334.420807,586.487061 349.502533,566.384338
	C361.758698,550.047852 379.069122,540.780273 397.850006,534.087402
	C425.642792,524.183044 454.560425,519.450195 483.747711,516.157837
	C496.660583,514.701294 509.595978,513.419861 522.542236,512.303223
	C525.399414,512.056763 526.806580,510.881500 528.302185,508.562012
	C536.786194,495.404205 545.559937,482.433533 554.095703,469.308533
	C555.947327,466.461487 557.829224,465.823883 561.134705,466.829681
	C569.543762,469.388489 578.088562,471.501251 587.565918,474.058929
	C579.159851,485.973816 571.195740,497.262268 562.669800,509.346985
	C590.673035,508.720734 617.682617,508.116730 645.362366,507.497742
	C649.280945,457.728790 664.517151,410.605469 679.277222,363.370056
	C678.841736,363.127808 678.406311,362.885529 677.970825,362.643250
	C676.630920,364.267212 675.345215,365.939636 673.942810,367.507599
	C658.020874,385.308990 643.663452,404.269836 631.471191,424.830597
	C630.219421,426.941559 628.977356,427.982635 626.268921,426.999176
	C617.051758,423.652161 607.745178,420.551483 597.867798,417.148315
	C600.196960,413.519440 602.499756,409.782318 604.946960,406.142303
	C626.459167,374.144104 649.195374,343.117188 677.534851,316.678925
	C688.402405,306.540375 699.922424,297.089020 713.732361,291.196960
	C718.474915,289.173523 723.948547,287.787659 729.039185,287.925110
	C735.578491,288.101685 737.184753,291.873016 734.540283,297.856171
	C711.482666,350.024414 694.482422,404.111389 683.549561,460.074768
	C680.932678,473.470215 679.247009,487.048584 677.193481,500.552032
	C676.848145,502.822876 676.812439,505.140808 676.599792,507.872955
	C684.273987,508.216522 691.553711,508.500824 698.828857,508.875641
	C724.326721,510.189270 749.743469,512.278259 774.239746,520.081421
	C781.811401,522.493286 789.251831,525.640808 796.294739,529.326111
	C814.286743,538.740723 824.974121,553.680908 828.588440,573.879883
	C828.984009,578.672485 828.991577,583.411804 828.982178,588.623535
z"/>
<path fill="#F6F6F6" opacity="1.000000" stroke="none"
	d="
M325.992706,437.595642
	C307.328003,442.580780 288.663269,447.565887 269.464386,452.267487
	C268.320557,452.414429 267.710907,452.844879 267.101257,453.275360
	C248.464157,460.320404 230.211899,468.195740 213.724945,479.551056
	C208.149963,483.390839 203.083313,487.968658 197.397705,491.879150
	C196.980316,491.296082 196.949585,491.043030 196.918839,490.789978
	C201.280197,484.027649 204.981659,476.705719 210.142029,470.621033
	C220.470978,458.442047 233.558823,449.650543 248.759155,442.968872
	C250.310760,442.382874 251.156830,441.808441 252.002914,441.234009
	C264.051331,436.759033 276.099762,432.284027 288.679993,428.065186
	C289.809082,427.973419 290.406372,427.625488 291.003632,427.277557
	C302.392456,424.826691 313.781250,422.375824 325.720703,420.185638
	C326.851044,420.182434 327.430786,419.918549 328.010498,419.654663
	C340.046570,418.057465 352.082611,416.460327 364.678833,415.141663
	C365.828064,415.222229 366.417145,415.024261 367.006195,414.826263
	C375.367401,414.164368 383.728607,413.502502 392.787415,413.202057
	C395.005554,413.334961 396.526031,413.106445 398.046539,412.877899
	C406.735474,412.730408 415.424377,412.582916 424.736450,412.905945
	C428.899689,413.269775 432.439789,413.163086 435.979889,413.056396
	C440.360870,413.156586 444.741852,413.256744 449.693909,413.815979
	C451.838318,414.197449 453.411652,414.119873 454.984955,414.042297
	C458.369476,414.168945 461.753998,414.295593 465.677185,414.850830
	C467.139099,415.199615 468.062347,415.119812 468.985626,415.039978
	C486.170685,417.028809 503.529510,418.081207 520.499390,421.229767
	C544.862244,425.750061 569.071716,431.284424 593.098511,437.365997
	C610.537109,441.779938 625.007629,451.430450 635.045776,466.842896
	C636.308411,468.781525 637.220642,470.955109 638.216370,473.057159
	C638.545837,473.752777 638.627563,474.565765 638.702881,474.858826
	C628.472229,469.592377 618.510071,463.523224 607.852295,459.149048
	C571.727966,444.322845 533.909058,435.903046 495.257294,431.040863
	C487.495178,430.064423 479.676514,429.537292 471.318237,428.335785
	C468.172699,427.900177 465.592804,427.931763 463.012939,427.963348
	C461.287140,427.967163 459.561310,427.970947 457.359558,427.553528
	C455.920929,427.308807 454.958252,427.485291 453.995605,427.661743
	C451.278046,427.623901 448.560486,427.586029 445.229797,427.068512
	C434.215424,426.419952 423.814362,426.234650 413.412415,426.135803
	C412.943054,426.131317 412.466217,426.909363 411.992859,427.322937
	C407.628815,427.585327 403.264740,427.847748 398.280823,427.800995
	C396.771790,427.714569 395.882660,427.937347 394.993500,428.160095
	C391.961548,428.485107 388.929565,428.810120 385.324707,428.848938
	C384.165741,428.764130 383.579681,428.965454 382.993622,429.166779
	C380.627625,429.491394 378.261627,429.816010 375.325378,429.860443
	C374.167145,429.805206 373.579102,430.030182 372.991089,430.255157
	C368.613007,430.871033 364.234894,431.486908 359.248810,431.799866
	C357.757782,431.844940 356.874786,432.192963 355.991791,432.540955
	C346.935333,434.062561 337.878906,435.584106 328.267090,436.830536
	C327.138733,436.902161 326.565735,437.248901 325.992706,437.595642
z"/>
<path fill="#F4F4F2" opacity="1.000000" stroke="none"
	d="
M412.442688,427.459900
	C412.466217,426.909363 412.943054,426.131317 413.412415,426.135803
	C423.814362,426.234650 434.215424,426.419952 444.810059,426.898865
	C434.299805,427.338226 423.596191,427.467560 412.442688,427.459900
z"/>
<path fill="#F4F4F2" opacity="1.000000" stroke="none"
	d="
M435.613770,412.903381
	C432.439789,413.163086 428.899689,413.269775 425.177368,413.066711
	C428.412689,412.754730 431.830170,412.752563 435.613770,412.903381
z"/>
<path fill="#F4F4F2" opacity="1.000000" stroke="none"
	d="
M463.370483,428.111450
	C465.592804,427.931763 468.172699,427.900177 470.879517,428.206940
	C468.580322,428.450043 466.154205,428.354797 463.370483,428.111450
z"/>
<path fill="#F4F4F2" opacity="1.000000" stroke="none"
	d="
M397.748108,412.755737
	C396.526031,413.106445 395.005554,413.334961 393.247559,413.294769
	C394.489929,412.895203 395.969788,412.764404 397.748108,412.755737
z"/>
<path fill="#F4F4F2" opacity="1.000000" stroke="none"
	d="
M454.656799,413.890320
	C453.411652,414.119873 451.838318,414.197449 450.129395,413.985931
	C451.438721,413.710663 452.883667,413.724487 454.656799,413.890320
z"/>
<path fill="#F4F4F2" opacity="1.000000" stroke="none"
	d="
M454.360199,427.782837
	C454.958252,427.485291 455.920929,427.308807 456.942993,427.435059
	C456.243195,427.793182 455.484009,427.848541 454.360199,427.782837
z"/>
<path fill="#F4F4F2" opacity="1.000000" stroke="none"
	d="
M395.282166,428.278137
	C395.882660,427.937347 396.771790,427.714569 397.819824,427.718262
	C397.176056,428.095184 396.373474,428.245667 395.282166,428.278137
z"/>
<path fill="#F4F4F2" opacity="1.000000" stroke="none"
	d="
M356.300446,432.612762
	C356.874786,432.192963 357.757782,431.844940 358.816467,431.738251
	C358.197784,432.214569 357.403442,432.449554 356.300446,432.612762
z"/>
<path fill="#F4F4F2" opacity="1.000000" stroke="none"
	d="
M468.715729,414.877686
	C468.062347,415.119812 467.139099,415.199615 466.104431,415.025208
	C466.810608,414.752472 467.628235,414.733948 468.715729,414.877686
z"/>
<path fill="#F4F4F2" opacity="1.000000" stroke="none"
	d="
M251.687073,441.244324
	C251.156830,441.808441 250.310760,442.382874 249.107391,442.932007
	C249.623810,442.356018 250.497513,441.805359 251.687073,441.244324
z"/>
<path fill="#F4F4F2" opacity="1.000000" stroke="none"
	d="
M290.720062,427.217651
	C290.406372,427.625488 289.809082,427.973419 289.071045,428.076202
	C289.432312,427.606598 289.934418,427.382172 290.720062,427.217651
z"/>
<path fill="#F4F4F2" opacity="1.000000" stroke="none"
	d="
M327.756958,419.563599
	C327.430786,419.918549 326.851044,420.182434 326.140564,420.236267
	C326.507690,419.841675 327.005554,419.657135 327.756958,419.563599
z"/>
<path fill="#F4F4F2" opacity="1.000000" stroke="none"
	d="
M383.239746,429.273315
	C383.579681,428.965454 384.165741,428.764130 384.870972,428.768372
	C384.488739,429.109283 383.987305,429.244598 383.239746,429.273315
z"/>
<path fill="#F4F4F2" opacity="1.000000" stroke="none"
	d="
M373.239319,430.364990
	C373.579102,430.030182 374.167145,429.805206 374.878174,429.791504
	C374.496613,430.160126 373.992096,430.317474 373.239319,430.364990
z"/>
<path fill="#F4F4F2" opacity="1.000000" stroke="none"
	d="
M326.264282,437.643311
	C326.565735,437.248901 327.138733,436.902161 327.855286,436.776001
	C327.511139,437.228088 327.023529,437.459503 326.264282,437.643311
z"/>
<path fill="#F4F4F2" opacity="1.000000" stroke="none"
	d="
M267.387207,453.300720
	C267.710907,452.844879 268.320557,452.414429 269.068939,452.297363
	C268.696167,452.849152 268.184662,453.087585 267.387207,453.300720
z"/>
<path fill="#F4F4F2" opacity="1.000000" stroke="none"
	d="
M366.761749,414.716553
	C366.417145,415.024261 365.828064,415.222229 365.120331,415.212219
	C365.506866,414.871796 366.012085,414.739319 366.761749,414.716553
z"/>
<path fill="#F4F4F2" opacity="1.000000" stroke="none"
	d="
M196.704544,490.952759
	C196.949585,491.043030 196.980316,491.296082 197.052551,491.929626
	C196.879166,492.432556 196.664276,492.555023 196.449387,492.677460
	C196.463013,492.156799 196.476639,491.636169 196.704544,490.952759
z"/>
</svg>
