<svg xmlns="http://www.w3.org/2000/svg" version="1.1" xmlns:xlink="http://www.w3.org/1999/xlink" width="512" height="512" x="0" y="0" viewBox="0 0 64 64" style="enable-background:new 0 0 512 512" xml:space="preserve"><g><path d="M26 23c-8.271 0-15 6.729-15 15s6.729 15 15 15 15-6.729 15-15-6.729-15-15-15zm7.343 25.717-.976-1.691-1.732 1 .973 1.684a12.889 12.889 0 0 1-4.606 1.239V48h-2v2.949a12.862 12.862 0 0 1-4.606-1.239l.973-1.684-1.732-1-.976 1.691a13.11 13.11 0 0 1-3.375-3.375l1.691-.976-1-1.732-1.684.973a12.889 12.889 0 0 1-1.239-4.606H16v-2h-2.949c.126-1.64.558-3.192 1.239-4.606l1.684.973 1-1.732-1.691-.976a13.11 13.11 0 0 1 3.375-3.375l.976 1.691 1.732-1-.973-1.684a12.889 12.889 0 0 1 4.606-1.239V28h2v-2.949c1.64.126 3.192.558 4.606 1.239l-.973 1.684 1.732 1 .976-1.691a13.11 13.11 0 0 1 3.375 3.375l-1.691.976 1 1.732 1.684-.973a12.889 12.889 0 0 1 1.239 4.606H36v2h2.949a12.862 12.862 0 0 1-1.239 4.606l-1.684-.973-1 1.732 1.691.976a13.068 13.068 0 0 1-3.374 3.377z" fill="#000000" opacity="1" data-original="#000000"></path><path d="M27 30h-2v8a1 1 0 0 0 .485.857l5 3 1.029-1.715L27 37.434z" fill="#000000" opacity="1" data-original="#000000"></path><path d="M49.6 1.2A1.001 1.001 0 0 0 48 2v4H10v2h39a1 1 0 0 0 1-1V4l9.389 7.041L50 18.865V15a1 1 0 0 0-1-1H26C12.767 14 2 24.767 2 38s10.767 24 24 24v-1l.021 1 .123-.001v-2l-.148.001C13.867 59.998 4 50.13 4 38c0-12.131 9.869-22 22-22h22v5a1 1 0 0 0 1.64.768l12-10a1.002 1.002 0 0 0-.041-1.568zM36.242 59.711c.632-.3 1.252-.627 1.844-.972l-1.008-1.729c-.543.317-1.112.617-1.693.894zM38.684 55.978l1.156 1.633c.564-.4 1.119-.829 1.648-1.276l-1.291-1.527c-.485.409-.994.802-1.513 1.17zM47.262 43.673l1.932.516a23.62 23.62 0 0 0 .449-2.038l-1.971-.344c-.11.628-.247 1.255-.41 1.866zM47.918 39.91l1.992.172c.06-.69.09-1.391.09-2.082h-2c0 .635-.027 1.277-.082 1.91zM44.055 50.574l1.639 1.148c.394-.562.771-1.155 1.12-1.764l-1.734-.996c-.32.557-.665 1.099-1.025 1.612zM45.959 47.266l1.814.842c.292-.63.561-1.278.796-1.928l-1.879-.684a21.895 21.895 0 0 1-.731 1.77zM30.299 61.616l-.357-1.969c-.616.112-1.254.199-1.895.259l.186 1.992c.698-.065 1.393-.16 2.066-.282zM33.627 58.643c-.599.221-1.211.417-1.821.584l.527 1.93a24.233 24.233 0 0 0 1.985-.637zM41.603 53.509l1.418 1.412a24.61 24.61 0 0 0 1.406-1.542l-1.535-1.283c-.411.491-.844.966-1.289 1.413zM2 6h2v2H2zM6 6h2v2H6z" fill="#000000" opacity="1" data-original="#000000"></path></g></svg>