<svg xmlns="http://www.w3.org/2000/svg" version="1.1" xmlns:xlink="http://www.w3.org/1999/xlink" width="512" height="512" x="0" y="0" viewBox="0 0 411 411.351" style="enable-background:new 0 0 512 512" xml:space="preserve"><g><path d="M109.402 160.426c0-16.942-13.78-30.719-30.722-30.719h-3.414a6.824 6.824 0 0 0-6.825 6.828 6.823 6.823 0 0 0 6.825 6.824h3.414c9.41 0 17.066 7.657 17.066 17.067s-7.656 17.066-17.066 17.066a6.827 6.827 0 0 0-6.825 6.828 6.827 6.827 0 0 0 6.825 6.828c16.941 0 30.722-13.78 30.722-30.722zM116.227 223.563c-22.586 0-40.961 18.375-40.961 40.96v1.715c0 3.774 3.058 6.828 6.828 6.828s6.828-3.054 6.828-6.828v-1.715c0-15.054 12.25-27.308 27.305-27.308a6.827 6.827 0 1 0 0-13.653zM136.707 136.535c15.055 0 27.309-12.254 27.309-27.308 0-3.77-3.059-6.829-6.828-6.829s-6.829 3.059-6.829 6.829c0 7.53-6.12 13.652-13.652 13.652-3.77 0-6.828 3.058-6.828 6.828s3.059 6.828 6.828 6.828zM167.426 293.547c-13.172 0-23.89-10.719-23.89-23.895 0-3.77-3.06-6.824-6.829-6.824s-6.828 3.055-6.828 6.824c0 20.703 16.844 37.547 37.547 37.547a6.827 6.827 0 1 0 0-13.652zm0 0" fill="#000000" opacity="1" data-original="#000000"></path><path d="M389.293 237.184c-12.258 0-22.227 9.972-22.227 22.23 0 1.727.243 3.39.618 5.008l-14.414 8.644H232.28v-34.132h33.567c2.902 8.906 11.187 15.402 21.047 15.402 12.257 0 22.23-9.973 22.23-22.23 0-12.254-9.977-22.227-22.23-22.227-9.864 0-18.145 6.496-21.047 15.402H232.28v-34.133h88.18c2.902 8.903 11.187 15.403 21.047 15.403 12.258 0 22.23-9.977 22.23-22.23 0-12.258-9.976-22.231-22.23-22.231-9.863 0-18.145 6.5-21.047 15.402h-88.18V143.36H353.27l14.414 8.649c-.375 1.613-.618 3.277-.618 5.004 0 12.258 9.973 22.23 22.227 22.23 12.258 0 22.23-9.972 22.23-22.23 0-12.254-9.972-22.227-22.23-22.227-5.578 0-10.625 2.137-14.531 5.547l-16.086-9.652a6.849 6.849 0 0 0-3.516-.973H232.281v-27.309H334.68a6.826 6.826 0 0 0 5.332-2.562l24.238-30.3c1.477.308 3 .48 4.563.48 12.257 0 22.23-9.973 22.23-22.23 0-12.255-9.973-22.227-22.23-22.227-12.254 0-22.227 9.972-22.227 22.226 0 5.7 2.215 10.848 5.754 14.79l-20.938 26.171h-99.12v-20.48h47.788a6.819 6.819 0 0 0 6.106-3.774l8-16c2.031.617 4.144 1.043 6.375 1.043 12.254 0 22.226-9.972 22.226-22.226 0-12.258-9.972-22.23-22.226-22.23-12.258 0-22.23 9.972-22.23 22.23 0 5.004 1.726 9.582 4.53 13.3l-7.003 14.004H232.28v-6.828C232.281 21.438 210.844 0 184.496 0 165.726 0 149 10.848 141.223 27.531c-.301-.031-.59-.015-.891-.039-1.2-.09-2.398-.183-3.625-.183-.027 0-.055.015-.086.015-26.285-.094-47.695 21.453-47.7 47.77 0 .664.016 1.328.044 1.996a47.805 47.805 0 0 0-13.695-1.996c-26.352 0-47.79 21.437-47.79 47.789a47.546 47.546 0 0 0 4.075 19.238C12.047 155.398.175 177.543.175 201.387c0 23.847 11.872 45.992 31.38 59.27a47.574 47.574 0 0 0-4.075 19.238c0 26.351 21.438 47.789 47.79 47.789 4.683 0 9.289-.676 13.695-1.996a42.65 42.65 0 0 0-.043 1.996c.004 26.32 21.437 47.87 47.703 47.77.031 0 .055.015.082.015 1.211 0 2.395-.094 3.582-.18.313-.027.617-.012.934-.043 7.777 16.68 24.5 27.527 43.27 27.527 24.027 0 43.913-17.84 47.241-40.957h44.114l7.004 14c-2.805 3.723-4.532 8.297-4.532 13.305 0 12.258 9.973 22.23 22.23 22.23 12.255 0 22.227-9.972 22.227-22.23 0-12.254-9.972-22.23-22.226-22.23-2.235 0-4.344.433-6.375 1.043l-8-16a6.826 6.826 0 0 0-6.106-3.774h-47.789v-20.476h99.121l20.938 26.171c-3.535 3.938-5.754 9.086-5.754 14.786 0 12.257 9.973 22.23 22.226 22.23 12.258 0 22.231-9.973 22.231-22.23 0-12.254-9.973-22.227-22.23-22.227-1.563 0-3.086.168-4.563.477l-24.238-30.301a6.838 6.838 0 0 0-5.332-2.563H232.28v-27.304h122.88c1.237 0 2.448-.336 3.515-.973l16.086-9.652c3.906 3.41 8.953 5.547 14.531 5.547 12.258 0 22.23-9.973 22.23-22.23 0-12.255-9.972-22.231-22.23-22.231zM286.895 223.53c4.726 0 8.574 3.848 8.574 8.574 0 4.73-3.848 8.579-8.574 8.579-4.73 0-8.579-3.848-8.579-8.579 0-4.726 3.848-8.574 8.579-8.574zm54.613-47.789c4.726 0 8.574 3.848 8.574 8.578 0 4.73-3.848 8.575-8.574 8.575-4.73 0-8.578-3.844-8.578-8.575 0-4.73 3.847-8.578 8.578-8.578zm47.785-27.304c4.73 0 8.578 3.847 8.578 8.574 0 4.73-3.848 8.578-8.578 8.578-4.727 0-8.574-3.848-8.574-8.578 0-4.727 3.847-8.575 8.574-8.575zM368.813 39.21c4.73 0 8.578 3.848 8.578 8.574 0 4.73-3.848 8.578-8.578 8.578-4.727 0-8.575-3.847-8.575-8.578 0-4.726 3.848-8.574 8.575-8.574zm-68.266-20.48c4.73 0 8.578 3.847 8.578 8.578 0 4.726-3.848 8.574-8.578 8.574s-8.574-3.848-8.574-8.574c0-4.73 3.843-8.579 8.574-8.579zm8.578 370.39c0 4.727-3.848 8.574-8.574 8.574-4.73 0-8.578-3.847-8.578-8.574 0-4.73 3.847-8.578 8.578-8.578 4.726 0 8.574 3.848 8.574 8.578zm68.266-20.48c0 4.73-3.848 8.574-8.575 8.574-4.73 0-8.578-3.844-8.578-8.574 0-3.532 2.153-6.567 5.207-7.88.016-.011.032-.015.051-.027a8.543 8.543 0 0 1 3.32-.671c4.727 0 8.575 3.847 8.575 8.578zm-192.899 20.48c-12.465 0-23.601-6.754-29.578-17.277 17.34-7.176 29.578-24.262 29.578-44.164a6.827 6.827 0 1 0-13.652 0c0 16.355-11.574 30.03-26.953 33.343-.367.079-.727.11-1.09.176-1.84.336-3.715.543-5.645.57-18.988.344-34.578-15.132-34.578-34.09 0-3.874.692-7.753 2.047-11.534 1-2.778.098-5.887-2.238-7.7a6.81 6.81 0 0 0-8.012-.261 33.939 33.939 0 0 1-19.101 5.843c-18.82 0-34.133-15.316-34.133-34.132 0-6.375 1.804-12.625 5.222-18.079a6.835 6.835 0 0 0 .829-5.336 6.834 6.834 0 0 0-3.313-4.265c-18.531-10.227-30.043-29.703-30.043-50.828s11.512-40.602 30.043-50.828a6.844 6.844 0 0 0 3.313-4.266 6.835 6.835 0 0 0-.829-5.336c-3.418-5.453-5.222-11.703-5.222-18.078 0-18.817 15.312-34.133 34.133-34.133 6.851 0 13.457 2.02 19.101 5.844a6.822 6.822 0 0 0 8.012-.262 6.822 6.822 0 0 0 2.238-7.7c-1.355-3.78-2.047-7.66-2.047-11.534 0-18.977 15.617-34.45 34.637-34.082 1.902.027 3.758.234 5.574.562.371.067.73.098 1.102.176 15.379 3.312 26.957 16.988 26.957 33.344a6.827 6.827 0 1 0 13.652 0c0-19.903-12.242-36.989-29.582-44.164 5.977-10.524 17.117-17.278 29.582-17.278 18.82 0 34.133 15.317 34.133 34.133v85.672c-.48.934-.82 1.953-.82 3.078 0 1.121.34 2.14.82 3.074v37.883h-13.652c-11.293 0-20.48-9.187-20.48-20.48a6.827 6.827 0 0 0-13.653 0c0 18.82 15.312 34.136 34.133 34.136h13.652v61.438h-15.426c-6.55 0-11.883-5.328-11.883-11.879 0-23.562-19.168-42.734-42.73-42.734h-5.055a6.826 6.826 0 1 0 0 13.652h5.055c16.035 0 29.078 13.05 29.078 29.082 0 14.078 11.453 25.531 25.535 25.531h15.426v88.75c0 18.82-15.313 34.133-34.137 34.133zm204.801-121.129c-4.727 0-8.574-3.847-8.574-8.578 0-4.727 3.847-8.574 8.574-8.574 4.73 0 8.578 3.847 8.578 8.574 0 4.73-3.848 8.578-8.578 8.578zm0 0" fill="#000000" opacity="1" data-original="#000000"></path></g></svg>