<svg xmlns="http://www.w3.org/2000/svg" version="1.1" xmlns:xlink="http://www.w3.org/1999/xlink" width="512" height="512" x="0" y="0" viewBox="0 0 60 60" style="enable-background:new 0 0 512 512" xml:space="preserve"><g><path d="M30.002 27.192a3.68 3.68 0 0 0 3.674-3.678 3.678 3.678 0 0 0-3.674-3.673 3.68 3.68 0 0 0-3.678 3.673 3.682 3.682 0 0 0 3.678 3.678zm0-5.351A1.675 1.675 0 1 1 30 25.19a1.675 1.675 0 0 1 .003-3.35z" fill="#000000" opacity="1" data-original="#000000"></path><path d="M26.12 54h7.768a4.483 4.483 0 0 0 4.478-4.478v-6.926c0-.005.003-.009.003-.014v-.12c0-2.305 1.06-4.54 2.908-6.134l.001-.001a17.235 17.235 0 0 0 5.976-13.6c-.262-8.823-7.362-16.156-16.164-16.693-4.825-.297-9.414 1.36-12.92 4.657-3.503 3.296-5.432 7.76-5.432 12.567 0 5.126 2.257 9.953 6.191 13.244 1.72 1.44 2.708 3.624 2.708 6.08 0 .008.004.016.005.024v5.157c0 .01-.006.017-.006.027s.005.017.006.027v1.705A4.483 4.483 0 0 0 26.12 54zm10.246-10.418v3.208H23.642v-3.208zM33.888 52H26.12a2.481 2.481 0 0 1-2.478-2.478v-.732h12.724v.732A2.481 2.481 0 0 1 33.888 52zM20.213 34.968a15.23 15.23 0 0 1-5.475-11.71c0-4.25 1.706-8.196 4.804-11.11C22.64 9.23 26.698 7.77 30.968 8.03c7.78.475 14.055 6.957 14.287 14.757a15.241 15.241 0 0 1-5.285 12.027c-2.054 1.771-3.322 4.199-3.56 6.764H31v-6.555h.235a1 1 0 0 0 .975-.777l.588-2.57c.339-.119.669-.257.988-.414l2.227 1.4c.395.249.908.19 1.238-.137l1.761-1.754a1 1 0 0 0 .14-1.242l-1.434-2.272c.14-.297.264-.605.37-.922l2.64-.6a1 1 0 0 0 .778-.976v-2.492a1 1 0 0 0-.778-.975l-2.726-.62a9.306 9.306 0 0 0-.344-.802l1.494-2.365a1 1 0 0 0-.138-1.241l-1.761-1.761a1 1 0 0 0-1.24-.14l-2.415 1.522a8.576 8.576 0 0 0-.744-.307l-.644-2.792a1 1 0 0 0-.975-.775h-2.477a1 1 0 0 0-.975.776l-.638 2.792c-.251.09-.5.192-.744.306l-2.422-1.522a1.001 1.001 0 0 0-1.24.141l-1.754 1.761a1 1 0 0 0-.138 1.238l1.49 2.37c-.125.262-.239.529-.34.799l-2.726.62a1 1 0 0 0-.777.975v2.492a1 1 0 0 0 .777.975l2.641.601c.107.314.23.62.37.916l-1.435 2.279a1 1 0 0 0 .14 1.24l1.753 1.753a1 1 0 0 0 1.24.14l2.227-1.401c.32.158.653.296.994.415l.582 2.567a1 1 0 0 0 .975.779H29v6.555h-5.403c-.23-2.605-1.434-4.977-3.384-6.61zm4.09-8.162a6.486 6.486 0 0 1-.633-1.569 1.001 1.001 0 0 0-.745-.722l-2.431-.554v-.896l2.493-.567a1 1 0 0 0 .735-.686c.156-.514.371-1.02.64-1.5.178-.319.168-.71-.027-1.02l-1.371-2.18.628-.63 2.225 1.398c.31.195.7.206 1.017.028.458-.253.937-.45 1.425-.586a1 1 0 0 0 .708-.74l.588-2.571h.885l.593 2.572a1 1 0 0 0 .708.74c.488.134.967.332 1.425.585a.997.997 0 0 0 1.017-.028l2.22-1.399.631.631-1.376 2.178a1 1 0 0 0-.022 1.031c.272.475.482.963.642 1.491a1 1 0 0 0 .735.686l2.493.567v.896l-2.43.554a1.001 1.001 0 0 0-.746.722 6.518 6.518 0 0 1-.633 1.576.999.999 0 0 0 .024 1.027l1.313 2.079-.63.627-2.047-1.288a.995.995 0 0 0-1.04-.015 6.603 6.603 0 0 1-1.627.683 1 1 0 0 0-.712.742l-.54 2.355h-.881l-.534-2.353a1 1 0 0 0-.716-.745 6.527 6.527 0 0 1-1.63-.682 1.001 1.001 0 0 0-1.041.015l-2.046 1.287-.625-.625 1.314-2.088a1 1 0 0 0 .024-1.026z" fill="#000000" opacity="1" data-original="#000000"></path></g></svg>