<svg xmlns="http://www.w3.org/2000/svg" version="1.1" xmlns:xlink="http://www.w3.org/1999/xlink" width="512" height="512" x="0" y="0" viewBox="0 0 512 512" style="enable-background:new 0 0 512 512" xml:space="preserve" class=""><g><path d="M90 221c-33.084 0-60-26.916-60-60s26.916-60 60-60 60 26.916 60 60-26.916 60-60 60zM300 181c-33.084 0-60-26.916-60-60s26.916-60 60-60 60 26.916 60 60-26.916 60-60 60zM497 161h-60c-8.284 0-15 6.716-15 15s6.716 15 15 15h23.787L307 344.787l-39.394-39.394c-5.857-5.857-15.355-5.857-21.213 0L130.787 421H15c-8.284 0-15 6.716-15 15s6.716 15 15 15h122c3.979 0 7.794-1.58 10.606-4.394L257 337.213l39.394 39.394c5.857 5.857 15.355 5.857 21.213 0L482 212.213V236c0 8.284 6.716 15 15 15s15-6.716 15-15v-60c0-8.284-6.716-15-15-15z" fill="#000000" opacity="1" data-original="#000000"></path><path d="M349.724 195.978C335.468 205.463 318.37 211 300 211c-18.369 0-35.468-5.536-49.724-15.022C226.004 212.098 210 239.678 210 271v28.361l15.181-15.181C233.68 275.681 244.981 271 257 271s23.32 4.681 31.819 13.179L307 302.36l72.87-72.871a90.43 90.43 0 0 0-30.146-33.511zM40.276 235.978C16.004 252.098 0 279.678 0 311v80h118.36L180 329.361V311c0-31.322-16.004-58.902-40.276-75.022C125.468 245.464 108.369 251 90 251s-35.468-5.536-49.724-15.022z" fill="#000000" opacity="1" data-original="#000000"></path></g></svg>