<svg width="1489" height="737" viewBox="0 0 1489 737" fill="none" xmlns="http://www.w3.org/2000/svg">
<rect y="9" width="1489" height="728" fill="black"/>
<line x1="42.5" y1="9" x2="42.5" y2="737" stroke="#9E9E9E"/>
<line x1="92.5" y1="9" x2="92.5" y2="737" stroke="#9E9E9E"/>
<line x1="142.5" y1="9" x2="142.5" y2="737" stroke="#9E9E9E"/>
<line x1="192.5" y1="9" x2="192.5" y2="737" stroke="#9E9E9E"/>
<line x1="242.5" y1="9" x2="242.5" y2="737" stroke="#9E9E9E"/>
<line x1="292.5" y1="9" x2="292.5" y2="737" stroke="#9E9E9E"/>
<line x1="342.5" y1="9" x2="342.5" y2="737" stroke="#9E9E9E"/>
<line x1="392.5" y1="9" x2="392.5" y2="737" stroke="#9E9E9E"/>
<line x1="442.5" y1="9" x2="442.5" y2="737" stroke="#9E9E9E"/>
<line x1="492.5" y1="9" x2="492.5" y2="737" stroke="#9E9E9E"/>
<line x1="542.5" y1="9" x2="542.5" y2="737" stroke="#9E9E9E"/>
<line x1="592.5" y1="9" x2="592.5" y2="737" stroke="#9E9E9E"/>
<line x1="642.5" y1="9" x2="642.5" y2="737" stroke="#9E9E9E"/>
<line x1="692.5" y1="9" x2="692.5" y2="737" stroke="#9E9E9E"/>
<line x1="742.5" y1="9" x2="742.5" y2="737" stroke="#9E9E9E"/>
<line x1="792.5" y1="9" x2="792.5" y2="737" stroke="#9E9E9E"/>
<line x1="842.5" y1="9" x2="842.5" y2="737" stroke="#9E9E9E"/>
<line x1="892.5" y1="9" x2="892.5" y2="737" stroke="#9E9E9E"/>
<line x1="942.5" y1="9" x2="942.5" y2="737" stroke="#9E9E9E"/>
<line x1="992.5" y1="9" x2="992.5" y2="737" stroke="#9E9E9E"/>
<line x1="1042.5" y1="9" x2="1042.5" y2="737" stroke="#9E9E9E"/>
<line x1="1092.5" y1="9" x2="1092.5" y2="737" stroke="#9E9E9E"/>
<line x1="1142.5" y1="9" x2="1142.5" y2="737" stroke="#9E9E9E"/>
<line x1="1192.5" y1="9" x2="1192.5" y2="737" stroke="#9E9E9E"/>
<line x1="1242.5" y1="9" x2="1242.5" y2="737" stroke="#9E9E9E"/>
<line x1="1292.5" y1="9" x2="1292.5" y2="737" stroke="#9E9E9E"/>
<line x1="1342.5" y1="9" x2="1342.5" y2="737" stroke="#9E9E9E"/>
<line x1="1392.5" y1="9" x2="1392.5" y2="737" stroke="#9E9E9E"/>
<line x1="1442.5" y1="9" x2="1442.5" y2="737" stroke="#9E9E9E"/>
<line y1="45.5" x2="1489" y2="45.5" stroke="#9E9E9E"/>
<line y1="95.5" x2="1489" y2="95.5" stroke="#9E9E9E"/>
<line y1="145.5" x2="1489" y2="145.5" stroke="#9E9E9E"/>
<line y1="195.5" x2="1489" y2="195.5" stroke="#9E9E9E"/>
<line y1="245.5" x2="1489" y2="245.5" stroke="#9E9E9E"/>
<line y1="295.5" x2="1489" y2="295.5" stroke="#9E9E9E"/>
<line y1="345.5" x2="1489" y2="345.5" stroke="#9E9E9E"/>
<line y1="395.5" x2="1489" y2="395.5" stroke="#9E9E9E"/>
<line y1="445.5" x2="1489" y2="445.5" stroke="#9E9E9E"/>
<line y1="495.5" x2="1489" y2="495.5" stroke="#9E9E9E"/>
<line y1="545.5" x2="1489" y2="545.5" stroke="#9E9E9E"/>
<line y1="595.5" x2="1489" y2="595.5" stroke="#9E9E9E"/>
<line y1="645.5" x2="1489" y2="645.5" stroke="#9E9E9E"/>
<line y1="695.5" x2="1489" y2="695.5" stroke="#9E9E9E"/>
<rect width="1489" height="737" fill="url(#paint0_radial_236_65)"/>
<defs>
<radialGradient id="paint0_radial_236_65" cx="0" cy="0" r="1" gradientUnits="userSpaceOnUse" gradientTransform="translate(744.5 368.5) rotate(90) scale(368.5 744.5)">
<stop stop-opacity="0.5"/>
<stop offset="1"/>
</radialGradient>
</defs>
</svg>
